 <svg
                xmlns="http://www.w3.org/2000/svg"
                width="117"
                height="169"
                fill="none"
                viewBox="0 0 117 169"
                className="injected-svg"
                role="img">
                <g id="default">
                    <g id="apple">
                        <path
                            id="Vector-1401"
                            fill="#007477"
                            d="M54.803 13.8C41.829 1.7 23.31 4.53 23.31 4.53S21.784 23.197 34.758 35.3a21.49 21.49 0 0 0 24.862 3.077 21.66 21.66 0 0 0 1.55-13.064A21.34 21.34 0 0 0 54.803 13.8"></path>
                        <path
                            id="Vector_2-1402"
                            fill="#7F2263"
                            d="M63.084 40.72a45.7 45.7 0 0 1 3.053-18.045 11.6 11.6 0 0 1 6.164-5.924 4.94 4.94 0 0 0 1.9-1.189 4.64 4.64 0 0 0 1.115-1.929 4.83 4.83 0 0 0-.78-4.266 13.5 13.5 0 0 0-2.148-2.026 4.61 4.61 0 0 0-6.024.385c-3.81 3.75-10.211 12.544-7.52 28.277a4.77 4.77 0 0 0 1.91 3z"></path>
                        <path
                            id="Vector_3-1403"
                            fill="#AEF97D"
                            d="M26.044 30.966c4.7-1.47 9.643-2 14.549-1.564a41.8 41.8 0 0 1 20.437 6.872 41.8 41.8 0 0 1 21.237-3.71 37.6 37.6 0 0 1 14.147 3.741c16.911 8.661 23.17 27.46 16.742 50.286-6.316 22.421-24.882 45.729-43.867 44.288a21.6 21.6 0 0 1-9.02-2.752 14.58 14.58 0 0 0-12.347-.937 21.6 21.6 0 0 1-9.332 1.36c-18.986-1.441-33.824-27.283-36.684-50.4-2.911-23.534 6.112-41.172 24.138-47.183"></path>
                        <path
                            id="Vector_4-1404"
                            fill="#fff"
                            d="M96.408 44.398c-3.163-1.744-7.948-1.537-9.76 1.223-2.084 3.172.314 8.87 4.527 10.469 3.376 1.282 8.208.04 9.441-3.394 1.171-3.263-1.51-6.811-4.208-8.298"
                            opacity=".5"></path>
                    </g>
                </g>

            </svg>