<svg xmlns="http://www.w3.org/2000/svg" width="131" height="130" viewBox="0 0 131 130" fill="none">
<path d="M65 130C100.899 130 130 100.899 130 65C130 29.1015 100.899 0 65 0C29.1015 0 0 29.1015 0 65C0 100.899 29.1015 130 65 130Z" fill="#B8FFFB"/>
<path d="M3.48604 37.4804C-23.614 46.2804 116.186 54.9804 116.186 54.9804C116.886 51.2804 117.186 47.4805 117.186 43.5805C117.186 41.7805 117.086 39.9805 116.986 38.1805L114.786 25.8804C112.486 17.7804 103.586 3.78045 103.586 3.78045C66.886 -11.4195 47.886 23.1805 3.48604 37.4804Z" transform="translate(12.814 21.4199)" fill="#44F29B"/>
<path d="M0.158397 44.722C0.758397 53.922 3.3584 63.122 7.7584 71.222C17.0584 88.422 34.5584 101.022 53.8584 104.322C73.1584 107.622 93.8584 101.722 108.458 88.622C123.058 75.522 131.158 55.622 129.958 36.022C112.358 34.222 94.8584 30.222 78.3584 23.922C62.6584 18.022 85.0584 26.522 69.4584 20.322C64.8584 18.522 33.8584 -3.27804 14.8584 0.421963C12.7584 0.821963 7.1584 10.122 5.3584 14.322C1.0584 23.922 -0.541603 34.422 0.158397 44.722Z" transform="translate(0.0415039 24.2773)" fill="#29E568"/>
<path d="M108.974 12.3C108.974 22.4 55.5742 9.30001 55.5742 30.6C55.5742 46.4 -12.9258 30.3 2.17421 12.3C15.8742 -4.10001 108.974 -4.10001 108.974 12.3Z" transform="translate(15.2258 62.0996)" fill="#00AFE5"/>
<path d="M3.05176e-06 14L3.5 12.4V16.7H4.2H4.9V12.4L8.4 14L4.2 -1.2207e-05L3.05176e-06 14Z" transform="translate(12.8 46.3008)" fill="#186D41"/>
<path d="M-3.05176e-06 30.4L7.6 27V36.3H9.1H10.6V27L18.1 30.4L9.1 6.10352e-06L-3.05176e-06 30.4Z" transform="translate(78.7 80.5996)" fill="#1D5646"/>
<path d="M0 14.1L3.5 12.5V16.8H4.2H4.89999V12.5L8.39999 14.1L4.2 6.10352e-06L0 14.1Z" transform="translate(74.5 100.1)" fill="#1E3544"/>
<path d="M3.05176e-06 13.3L3.30001 11.8V15.8H4H4.59999V11.8L7.9 13.3L4 -6.10352e-06L3.05176e-06 13.3Z" transform="translate(96.8 19.9004)" fill="#156B44"/>
<path d="M-6.10352e-06 22.6L5.6 20.1V27H6.8H7.9V20.1L13.5 22.6L6.8 6.10352e-06L-6.10352e-06 22.6Z" transform="translate(22.9001 27.5996)" fill="#17AF46"/>
<path d="M-3.05176e-06 9.80001L3 8.70001V11.7H3.6H4.19999V8.70001L7.19999 9.80001L3.6 -6.10352e-06L-3.05176e-06 9.80001Z" transform="translate(104.7 29.9004)" fill="#1D5646"/>
<path d="M-6.10352e-06 14L3.49999 12.5V16.8H4.20001H4.9V12.5L8.4 14L4.20001 6.10352e-06L-6.10352e-06 14Z" transform="translate(32.4001 43.5996)" fill="#1D5646"/>
<path d="M-6.10352e-06 2.4841C-6.10352e-06 2.4841 11.3 1.48408 14.5 0.184083C17 -0.815917 25 2.58408 25 2.58408C13.5 0.484077 16.8 1.88408 11.1 2.08408L-6.10352e-06 2.4841Z" transform="translate(22.8999 77.7168)" fill="#6EEAE1"/>
<path d="M-3.05176e-06 2.03752C-3.05176e-06 2.03752 12.7 1.13752 16.2 0.137524C18.9 -0.562476 28.6 1.63752 28.6 1.63752C15 0.437524 19.1 1.33752 12.7 1.53752L-3.05176e-06 2.03752Z" transform="translate(36.2 81.8633)" fill="#6EEAE1"/>
<path d="M0 2.38177C0 2.38177 12.7 1.28176 16.1 0.18176C18.8 -0.61824 28.5 1.48175 28.5 1.48175C14.9 0.481748 18.9 1.28176 12.6 1.68176L0 2.38177Z" transform="translate(73.5 66.8184)" fill="#6EEAE1"/>
</svg>