<svg xmlns="http://www.w3.org/2000/svg" width="130" height="130" viewBox="0 0 130 130" fill="none">
<path d="M65 130C100.899 130 130 100.899 130 65C130 29.1015 100.899 0 65 0C29.1015 0 0 29.1015 0 65C0 100.899 29.1015 130 65 130Z" fill="#B8FFFB"/>
<path d="M115.2 5.60001C106.3 8.00001 100.8 18.1 79.2 10C46.9 -2.2 31 25.6 0 0C0 63.6 70.6 67 88.2 56.1C112.4 41 122.4 52.4 130 4.5C125.4 4 120.4 4.20001 115.2 5.60001Z" transform="translate(0 63)" fill="#00AFE5"/>
<path d="M3.9 -1.2207e-05H-6.10352e-06V11.6H3.9V-1.2207e-05Z" transform="translate(74.9688 57.4863) rotate(15.0466)" fill="#D5432C"/>
<path d="M3.9 -6.10352e-06H6.10352e-06V1.20001H3.9V-6.10352e-06Z" transform="translate(75.301 56.418) rotate(15.0466)" fill="#101926"/>
<path d="M3.9 0H3.05176e-06V11.6H3.9V0Z" transform="translate(80.3542 57.7031) rotate(15.0466)" fill="#D5432C"/>
<path d="M3.9 0H-6.10352e-06V1.20001H3.9V0Z" transform="translate(80.616 56.5117) rotate(15.0466)" fill="#101926"/>
<path d="M3.9 6.10352e-06H6.10352e-06V11.6H3.9V6.10352e-06Z" transform="translate(85.6694 57.7988) rotate(15.0466)" fill="#D5432C"/>
<path d="M3.90001 1.2207e-05H-3.05176e-06V1.19999H3.90001V1.2207e-05Z" transform="translate(85.9053 56.7031) rotate(15.0466)" fill="#101926"/>
<path d="M3.9 -1.2207e-05H-6.10352e-06V11.6H3.9V-1.2207e-05Z" transform="translate(90.9585 57.9902) rotate(15.0466)" fill="#D5432C"/>
<path d="M3.9 -1.2207e-05H6.10352e-06V1.2H3.9V-1.2207e-05Z" transform="translate(91.3169 56.8242) rotate(15.0466)" fill="#101926"/>
<path d="M38.1 10.8L33.4 4.89999H31.8L30 2.6H27.2L25.3 -6.10352e-06L1.9 0.1L6.10352e-06 10.8H33.4L33 10.3L38.1 10.8Z" transform="translate(68.1001 67.4004)" fill="#E1E5EC"/>
<path d="M1.3 11.1C1.3 11.1 2.1 23.6 9 23.6H53H57.5C57.5 23.6 65.7 13.9 58.3 8.29999C58.3 8.29999 57.7 4.80001 60.8 6.10352e-06L0 4.4L1.3 11.1Z" transform="translate(52 78.1016)" fill="#AF2B25"/>
<path d="M1.5 8.19999H59.1L61.6 1.2207e-05H3.05176e-06L1.5 8.19999Z" transform="translate(51.3 78.2012)" fill="#101926"/>
<path d="M17.3 2.01251C16.7 1.61251 15.7 1.21251 14.5 1.01251C9.2 -0.187488 3.05176e-06 0.0125122 3.05176e-06 0.0125122L0.599994 2.01251H17.3Z" transform="translate(50.8 76.1875)" fill="#B1BBD1"/>
<path d="M3.05176e-06 2.01287C3.05176e-06 2.01287 8.9 -0.187133 12 0.0128666V2.01287H3.05176e-06Z" transform="translate(100.8 76.1875)" fill="#B1BBD1"/>
<path d="M-3.05176e-06 0.100006L41 0V1.20001H-3.05176e-06V0.100006Z" transform="translate(65.2 77)" fill="#B1BBD1"/>
<path d="M1.5 1.39999H0L0.300003 -6.10352e-06H1.7L1.5 1.39999Z" transform="translate(69.5 68.9004)" fill="#123454"/>
<path d="M1.4 1.50001H6.10352e-06L0.200003 6.10352e-06H1.7L1.4 1.50001Z" transform="translate(69.1001 71.1016)" fill="#123454"/>
<path d="M1.40001 1.49999H-3.05176e-06L0.199994 -1.2207e-05H1.69999L1.40001 1.49999Z" transform="translate(68.7 73.3008)" fill="#123454"/>
<path d="M2.59999 5.19999C1.19999 5.19999 3.05176e-06 4.00001 3.05176e-06 2.60001C3.05176e-06 1.20001 1.19999 6.10352e-06 2.59999 6.10352e-06C3.99999 6.10352e-06 5.2 1.20001 5.2 2.60001C5.2 4.00001 3.99999 5.19999 2.59999 5.19999Z" transform="translate(74.3 69.6016)" fill="#101926"/>
<path d="M2.6 5.19999C1.2 5.19999 6.10352e-06 4.00001 6.10352e-06 2.60001C6.10352e-06 1.20001 1.2 6.10352e-06 2.6 6.10352e-06C4 6.10352e-06 5.2 1.20001 5.2 2.60001C5.2 4.00001 4 5.19999 2.6 5.19999Z" transform="translate(81.6001 69.6016)" fill="#101926"/>
<path d="M2.6 5.19999C1.2 5.19999 -3.05176e-06 4.00001 -3.05176e-06 2.60001C-3.05176e-06 1.20001 1.2 6.10352e-06 2.6 6.10352e-06C4 6.10352e-06 5.19999 1.20001 5.19999 2.60001C5.19999 4.00001 4.1 5.19999 2.6 5.19999Z" transform="translate(88.7 69.6016)" fill="#101926"/>
<path d="M106.6 5.20001C98.3 7.40001 93.3 16.9 73.3 9.30001C43.4 -2.09999 28.7 23.8 0 -6.10352e-06C10 29 38.8 42.6 61 42.6C87.4 42.6 111.9 26.8 120.3 4.20001C116.1 3.70001 111.4 3.90001 106.6 5.20001Z" transform="translate(4 87.4004)" fill="#0092CC"/>
<path d="M7.80001 2.70001C7.80001 4.20001 6 5.30001 3.9 5.30001C1.7 5.30001 3.05176e-06 4.10001 3.05176e-06 2.70001C3.05176e-06 1.20001 1.8 -6.10352e-06 3.9 -6.10352e-06C6 -6.10352e-06 7.80001 1.20001 7.80001 2.70001Z" transform="translate(71.8 29.9004)" fill="white"/>
<path d="M36.6 7.30001C36.6 11.4 31 14.6 24 14.6C22.2 14.6 20.5 14.4 18.9 14C18.9 14.2 19 14.4 19 14.6C19 17.1 16.9 19.2 13.8 20.3C14.2 20.7 14.5 21.2 14.5 21.7C14.5 23.5 11.7 24.9 8.19999 24.9C4.79999 24.9 2 23.5 2 21.7C2 20.9 2.6 20.1 3.6 19.6C1.4 18.4 -3.05176e-06 16.6 -3.05176e-06 14.6C-3.05176e-06 11.1 4.2 8.20001 9.5 8.20001C10.2 8.20001 10.9 8.29999 11.6 8.39999C11.5 8.09999 11.5 7.70001 11.5 7.30001C11.5 3.20001 17.1 -6.10352e-06 24.1 -6.10352e-06C31 -6.10352e-06 36.6 3.30001 36.6 7.30001Z" transform="translate(71.7 28.4004)" fill="white"/>
<path d="M47.6 17.9C47.6 12.2 37 6.5 27.6 6.5C27.3 6.5 27.1 6.5 26.8 6.5C24.9 2.7 19.7 0 13.7 0C11 0 8.5 0.5 6.4 1.5C3.6 6.6 1.4 12.1 3.05176e-06 17.9H47.6Z" transform="translate(1.80005 32)" fill="white"/>
</svg>