<svg xmlns="http://www.w3.org/2000/svg" width="130" height="130" viewBox="0 0 130 130" fill="none">
<path d="M65 130C100.898 130 130 100.898 130 65C130 29.1015 100.898 0 65 0C29.1015 0 0 29.1015 0 65C0 100.898 29.1015 130 65 130Z" fill="#B8FFFB"/>
<path d="M3.05176e-06 17.3H49.6C49.6 11.7 39.3 6.3 30.2 6.3C29.9 6.3 29.7 6.3 29.4 6.3C27.6 2.6 22.5 -1.52588e-06 16.6 -1.52588e-06C14.2 -1.52588e-06 12 0.400003 10.1 1.2C7.2 3.8 1.4 13.5 3.05176e-06 17.3Z" transform="translate(5.3999 21.6992)" fill="white"/>
<path d="M31.6 8.4C31.9 7.8 32 7.2 32 6.5C32 2.9 27.8 -1.52588e-06 22.7 -1.52588e-06C18.6 -1.52588e-06 15.2 1.8 13.9 4.3C13.7 4.3 13.6 4.3 13.4 4.3C7.09999 4.3 0 8.1 0 11.9H35.4C35.4 10.4 33.9 9 31.6 8.4Z" transform="translate(67.0999 8.19922)" fill="white"/>
<path d="M110 30.7C111.2 10 82.5 0.100003 46.2 3.05176e-06C27.1 3.05176e-06 11.6 3.7 3.05176e-06 9.4C3.05176e-06 9.9 3.05176e-06 10.3 3.05176e-06 10.8C3.05176e-06 16.5 3.03984e-06 22.1 0.500003 27.6C4.1 40.3 11.4 51.4 21.2 59.7C21.9 60 22.6 60.4 23.3 60.7C30.4 62.1 38.2 62.9 46.3 62.9C81.5 62.8 109 48.4 110 30.7Z" transform="translate(1.8999 54.9004)" fill="#00AFE5"/>
<path d="M6.5 0C2.4 8.6 1.52588e-06 18.2 1.52588e-06 28.3C1.52588e-06 36.9 1.7 45.1 4.7 52.7C57.7 47 74.3 36.5 74.3 36.5C47 16.3 22.8 5.6 6.5 0Z" transform="translate(0 36.5996)" fill="#E4C27F"/>
<path d="M61 36.2C61 22.8 56.9 10.4 50 -3.05176e-06C36.4 1.1 18.4 7.3 -6.10352e-06 27.3C-6.10352e-06 27.3 34 30 32.1 53.7C31.6 60.4 47.1 54.8 59.7 49.2C60.6 45 61 40.6 61 36.2Z" transform="translate(69 28.8008)" fill="#E4C27F"/>
<path d="M42.8 68.2C78.2 67.6 106.6 38.7 106.6 3.2C106.6 2.1 106.6 1.00001 106.5 6.10352e-06C55.6 6.20001 69 38 3.05176e-06 53.2C11.2 63 26.5 68.2 42.8 68.2Z" transform="translate(23.3999 61.6992)" fill="#CE956F"/>
</svg>