<?xml version="1.0" encoding="utf-8"?>
<!-- Generator: Adobe Illustrator 21.0.2, SVG Export Plug-In . SVG Version: 6.00 Build 0)  -->
<svg version="1.1" id="Layer_1" xmlns="http://www.w3.org/2000/svg" xmlns:xlink="http://www.w3.org/1999/xlink" x="0px" y="0px"
	 width="160px" height="160px" viewBox="0 0 160 160" style="enable-background:new 0 0 160 160;" xml:space="preserve">
<style type="text/css">
	.st0{fill:#FFFFFF;}
	.st1{fill:#EDEEE8;}
	.st2{fill-rule:evenodd;clip-rule:evenodd;fill:#99BF7C;}
	.st3{fill:#2B2523;}
	.st4{fill-rule:evenodd;clip-rule:evenodd;fill:#EA5063;}
	.st5{fill:#FEC700;}
	.st6{fill:#99BF7C;}
	.st7{fill:#73518B;}
	.st8{fill:none;stroke:#2B2523;stroke-miterlimit:10;}
	.st9{fill:#FCF7C9;}
	.st10{fill:none;stroke:#2B2523;stroke-width:2;stroke-miterlimit:10;}
	.st11{clip-path:url(#SVGID_2_);}
	.st12{clip-path:url(#SVGID_4_);fill:#99BF7C;}
	
		.st13{clip-path:url(#SVGID_4_);fill:none;stroke:#FFFFFF;stroke-width:3.9388;stroke-linecap:round;stroke-linejoin:round;stroke-miterlimit:10;}
	.st14{clip-path:url(#SVGID_6_);}
	.st15{clip-path:url(#SVGID_8_);fill:#D3D4CD;}
	.st16{clip-path:url(#SVGID_8_);fill:#FFFFFF;}
	.st17{fill:#70BEDC;}
	.st18{fill:#FDD9A4;}
	.st19{fill:#70B8B9;}
	.st20{fill:#C8A445;}
	.st21{fill:#E6BC88;}
	.st22{fill:#FDC0C0;}
	.st23{clip-path:url(#SVGID_10_);fill:#FDC0C0;}
	.st24{fill:#402B2C;}
	.st25{clip-path:url(#SVGID_12_);}
	.st26{fill:#EC5252;}
	.st27{clip-path:url(#SVGID_14_);fill:#1E4552;}
	.st28{clip-path:url(#SVGID_16_);fill:#1E4552;}
	.st29{fill:#A63378;}
	.st30{fill:#CF469C;}
	.st31{fill:#EF5A26;}
	.st32{fill:#71366D;}
	.st33{fill:#582957;}
	.st34{fill:#F5B717;}
	.st35{fill:#D69600;}
	.st36{fill:#FCF3E8;}
	.st37{fill:none;stroke:#3776A4;stroke-width:2;stroke-miterlimit:10;}
	.st38{fill:#F05A68;}
	.st39{fill:#F17386;}
	.st40{fill:#B8DDE8;}
	.st41{fill:#CDE7EE;}
	.st42{fill:#E1F0F3;}
	.st43{fill:#F6FAF9;}
	.st44{opacity:0.8;}
</style>
<g>
	<circle class="st40" cx="80" cy="80" r="80"/>
	<ellipse transform="matrix(0.2518 -0.9678 0.9678 0.2518 -17.5646 137.2814)" class="st41" cx="80" cy="80" rx="76" ry="78.4"/>
	<ellipse transform="matrix(0.9156 -0.402 0.402 0.9156 -24.3842 38.077)" class="st42" cx="78.5" cy="77.1" rx="75.8" ry="72.9"/>
	<circle class="st43" cx="77.7" cy="80" r="68.1"/>
	<g class="st44">
		<path class="st0" d="M150.2,73.5c-2.7-5.7-4.8-11.1-7.9-15.9l-1-1.8c-0.4-0.6-0.8-1.2-1.2-1.8c-0.8-1.2-1.5-2.3-2.3-3.5
			c-0.9-1.1-1.7-2.2-2.5-3.3l-1.2-1.6l-1.4-1.5l-2.7-3l-2.8-2.8c-0.5-0.5-0.9-1-1.4-1.4c-0.5-0.4-1-0.9-1.5-1.3c-1-0.9-2-1.8-3-2.6
			c-2.2-1.5-4.1-3.3-6.4-4.6c-1.1-0.7-2.1-1.5-3.3-2.1l-3.4-1.9c-4.6-2.4-9.4-4.5-14.4-6l-1.9-0.6c-0.6-0.2-1.3-0.4-1.9-0.5
			c-1.3-0.3-2.6-0.6-3.9-0.9c-1.3-0.4-2.6-0.5-3.9-0.7c-1.3-0.2-2.7-0.5-4-0.6c-10.8-1.3-22-0.5-34.2,2l-0.5-0.9
			c5.2-3,10.9-5.3,16.7-6.9C66,7.5,72.1,6.7,78.1,6.7c6,0.1,12.1,0.5,18,2.1c3,0.6,5.8,1.7,8.7,2.6c0.7,0.2,1.4,0.5,2.1,0.8l2.1,0.9
			c1.4,0.6,2.8,1.2,4.1,2l3.9,2.3c1.3,0.8,2.5,1.7,3.8,2.6c2.6,1.6,4.8,3.7,7.1,5.7c1.1,1,2.1,2.1,3.2,3.2l1.6,1.6
			c0.5,0.6,1,1.2,1.5,1.7l2.9,3.5l2.6,3.7c6.8,10,10.6,21.9,11.6,33.9L150.2,73.5z"/>
	</g>
	<g class="st44">
		<path class="st0" d="M6.5,77.1c1,6.3,2.2,12.3,3.9,18.1c1,2.9,1.8,5.8,3,8.5c0.5,1.4,1.2,2.8,1.7,4.2c0.7,1.3,1.3,2.7,2,4
			c0.7,1.3,1.4,2.7,2.2,3.9c0.4,0.6,0.7,1.3,1.2,1.9c0.4,0.6,0.8,1.2,1.2,1.9c0.8,1.3,1.7,2.5,2.5,3.7l1.4,1.8
			c0.5,0.6,0.9,1.2,1.4,1.8c3.8,4.8,8,9.2,12.6,13.6l-0.2,0.3c-5.3-3.4-10.2-7.4-14.4-12.1c-4.3-4.6-7.9-9.8-10.9-15.4
			c-2.9-5.6-5-11.6-6.4-17.7C6.5,89.7,6,83.4,6.2,77.1L6.5,77.1z"/>
	</g>
</g>
<ellipse transform="matrix(0.2731 -0.962 0.962 0.2731 30.3581 107.113)" class="st0" cx="86.1" cy="33.5" rx="13.2" ry="30.8"/>
<ellipse transform="matrix(0.7071 -0.7071 0.7071 0.7071 -2.2071 105.2961)" class="st0" cx="126" cy="55.3" rx="8.5" ry="12.8"/>
</svg>
