<?xml version="1.0" encoding="utf-8"?>
<!-- Generator: Adobe Illustrator 16.0.0, SVG Export Plug-In . SVG Version: 6.00 Build 0)  -->
<!DOCTYPE svg PUBLIC "-//W3C//DTD SVG 1.1//EN" "http://www.w3.org/Graphics/SVG/1.1/DTD/svg11.dtd">
<svg version="1.1" id="Layer_1" xmlns="http://www.w3.org/2000/svg" xmlns:xlink="http://www.w3.org/1999/xlink" x="0px" y="0px"
	 width="18px" height="36px" viewBox="0 0 18 36" enable-background="new 0 0 18 36" xml:space="preserve">
<g>
	<g>
		<path fill="#968F87" d="M4.715,10.39c-2.228-5.378,4.797-8.62,7.935-4.416c1.618,2.168,0.42,5.501-0.58,7.611
			c-2.396,5.055-7.617,7.184-4.778,13.341c1.13,2.451,5.4,0.665,4.376-1.846c-1.234-3.026,2.062-5.141,3.515-7.385
			c1.2-1.853,1.774-3.996,2.179-6.138c0.638-3.385,0.077-7.584-2.97-9.702C7.51-2.925-4.626,3.948,2.651,11.591
			C3.454,12.434,5.202,11.567,4.715,10.39L4.715,10.39z"/>
	</g>
	<g>
		<path fill="#968F87" d="M8.499,30.942c-0.265,0.317-0.388,0.501-0.537,0.884c-0.057,0.146-0.232,0.598,0.043-0.015
			c-0.393,0.872-0.41,1.607,0.011,2.508c0.3,0.642,1.072,1.247,1.771,1.356c0.712,0.11,1.181,0.047,1.833-0.267
			c0.503-0.242,0.98-0.917,1.069-1.476c-0.166,0.285-0.332,0.57-0.498,0.854c0.276-0.302,0.5-0.603,0.584-1.015
			c0.21-1.026-0.29-1.813-1.239-2.184c-0.228-0.089-0.473-0.102-0.715-0.107c0.457,0.189,0.913,0.378,1.37,0.567
			c-0.193-0.21-0.401-0.386-0.646-0.544c0.075,0.049-1.499-0.631-0.45-0.141c-0.251-0.117-1.247-0.628-0.38-0.208
			c-0.262-0.158-0.117-0.015,0.433,0.431c0.416,0.786-0.274-0.753,0.033,0.063c-0.203-0.537-0.543-0.961-1.12-1.12
			C9.547,30.389,8.856,30.515,8.499,30.942L8.499,30.942z"/>
	</g>
	<path fill="#F7E7BD" d="M15.072,7.013c-0.547-1.683-1.723-3.538-3.591-3.898c-1.381-0.266-2.692,0.375-3.864,1.122
		c1.716-0.467,3.715-0.027,5.032,1.738c1.618,2.168,0.42,5.501-0.58,7.611c-2.396,5.055-7.617,7.184-4.778,13.341
		c0.835,1.812,3.379,1.306,4.24-0.092c-0.733-0.397-1.52-0.7-2.244-1.046c-0.469-1.446-0.113-3.146,0.071-4.654
		c0.178-1.441,2.409-3.096,2.5-3.167C15.166,15.403,16.506,11.421,15.072,7.013z"/>
	<path fill="#F7E7BD" d="M5.212,1.012C0.918,2.687-1.722,6.998,2.651,11.591c0.419,0.44,1.091,0.408,1.572,0.115
		c-0.13-0.577-0.447-1.184-0.615-1.567c-0.854-1.949-1.4-3.295-0.141-5.178C4.37,3.611,4.951,2.456,5.212,1.012z"/>
	<path fill="#F7E7BD" d="M12.758,33.816c-1.144-0.079-2.704,0.006-3.406-0.574c-0.599-0.494-0.819-1.663-0.601-2.507
		c-0.091,0.061-0.182,0.123-0.252,0.207c-0.265,0.317-0.388,0.501-0.537,0.884c-0.057,0.146-0.232,0.598,0.043-0.015
		c-0.393,0.872-0.41,1.607,0.011,2.508c0.3,0.642,1.072,1.247,1.771,1.356c0.712,0.11,1.181,0.047,1.833-0.267
		c0.434-0.209,0.832-0.736,0.995-1.236C12.672,34.061,12.728,33.947,12.758,33.816z"/>
</g>
</svg>
